<svg width="28" height="25" viewBox="0 0 28 25" fill="none" xmlns="http://www.w3.org/2000/svg">
<path d="M10.386 24.0964C10.2577 24.2469 10.1051 24.3664 9.9371 24.4479C9.76906 24.5295 9.58886 24.5714 9.40687 24.5714C9.22487 24.5714 9.04468 24.5295 8.87664 24.4479C8.70859 24.3664 8.55603 24.2469 8.42771 24.0964L0.608244 14.9727C0.218786 14.5182 0 13.9019 0 13.2593C0 12.6166 0.218786 12.0003 0.608244 11.5459L1.58741 10.4036C1.97698 9.94924 2.50529 9.69401 3.05615 9.69401C3.60702 9.69401 4.13532 9.94924 4.5249 10.4036L9.40687 16.0988L22.5986 0.709568C22.9881 0.255232 23.5165 0 24.0673 0C24.6182 0 25.1465 0.255232 25.5361 0.709568L26.5152 1.85185C26.9047 2.30632 27.1235 2.92264 27.1235 3.56526C27.1235 4.20789 26.9047 4.8242 26.5152 5.27868L10.386 24.0964Z" fill="white"/>
</svg>
